<svg id="Layer_1" data-name="Layer 1" xmlns="http://www.w3.org/2000/svg" viewBox="0 0 719.34 632.1"><defs><style>.cls-1{fill:#f2f2f9;}.cls-2{fill:#e1d8eb;}.cls-3{fill:#c86e5a;}.cls-4{fill:#a3515d;}.cls-5{fill:#34bba4;}.cls-6{fill:#9bd2a4;}.cls-7{fill:#f58d8f;}.cls-8{fill:#e2d8eb;}.cls-9{fill:#b2bfe2;}.cls-10{fill:#4b3061;}.cls-11{fill:#703d84;}</style></defs><path class="cls-1" d="M316.35,547.82l-316,0V.16L84.76.22c2.78,3.44,2.06,7.56,2.06,11.47.07,34.14,0,68.28.05,102.42,0,9.86.3,10.15,10.31,10.16q103.14,0,206.26,0c4.38,0,8.95-.81,12.95,2,2.34,2.71,2.15,6,2.16,9.28q.1,33.13,0,66.28c0,3,.09,6.08-1.71,8.75-2.83,2.76-6.47,2.36-9.92,2.38-14.26.1-28.52,0-42.78.07-8.17.05-8.72.65-8.8,8.8q-.1,10.17,0,20.34c.09,7.82.67,8.47,8.35,8.53,14.26.11,28.52,0,42.78.07,3.46,0,7.07-.37,10.09,2a9,9,0,0,1,1.85,5.82c.27,10.14.23,20.28,0,30.43a9.85,9.85,0,0,1-1.68,5.89c-2.88,2.64-6.51,2.24-10,2.26-14.24.1-28.49,0-42.74.07-8.1,0-8.63.65-8.7,8.88-.06,7,.19,14-.08,21-.22,5.71,2.05,7.94,7.78,7.87,14.48-.17,29-.11,43.44,0,3.46,0,7.07-.37,10.08,2.05a9,9,0,0,1,1.85,5.82c.27,10.15.23,20.29,0,30.43a9.83,9.83,0,0,1-1.68,5.89c-2.9,2.64-6.53,2.24-10,2.26-13.56.09-27.12,0-40.68,0-10.71,0-10.74.06-10.75,11.08,0,6.32.21,12.64-.06,18.94-.26,5.83,2.29,7.82,7.91,7.76,14.49-.17,29-.12,43.49,0,3.46,0,7.08-.37,10,2.2,2.06,2.86,1.86,6.19,1.87,9.43q.06,53.81,0,107.62C318.56,541.78,318.75,545.13,316.35,547.82Z" transform="translate(-0.33)"/><path class="cls-2" d="M316.35,547.82q0-63.15-.08-126.32l.94-.9c3-1.62,6.36-1.28,9.6-1.29,14.25-.06,28.5-.16,42.74,0,5.62.08,8.09-1.9,7.87-7.73-.3-7.69-.21-15.41,0-23.11.11-5.15-2.17-7.05-7.14-7q-21.36.11-42.73,0c-3.48,0-7,.42-10.32-1.28l-.93-.92v-42l.94-.9c3-1.62,6.36-1.28,9.6-1.29,14.25-.06,28.5-.16,42.74,0,5.62.07,8.09-1.91,7.87-7.74-.3-7.69-.21-15.41,0-23.11.11-5.15-2.17-7.05-7.14-7q-21.37.1-42.73,0c-3.48,0-7,.42-10.32-1.28l-.93-.91V253l.94-.9c3-1.62,6.36-1.28,9.6-1.29,14.25-.06,28.5-.15,42.74,0,5.62.07,8.09-1.91,7.87-7.74-.3-7.69-.21-15.41,0-23.11.11-5.15-2.17-7-7.14-7q-21.37.09-42.73,0c-3.48,0-7,.42-10.32-1.28l-.93-.91.07-84,.94-1c3.93-2.11,8.23-1.45,12.39-1.45q101.46-.07,202.91,0c13.2,0,13.21,0,13.21-12.88q0-49.84,0-99.69c0-3.9-.74-8,2.06-11.47,25.47,0,51,.16,76.42-.25,6.51-.1,8.15,1.81,8.14,8.21q-.29,170.72-.14,341.44c-2.88,1.54-5.44,0-8-1a135.83,135.83,0,0,0-51.87-9.56c-70.61-.62-133,52-144.25,121.72a145.42,145.42,0,0,0,8.54,77.69c1.16,3,3.21,5.84,1.65,9.31Z" transform="translate(-0.33)"/><path class="cls-3" d="M316.34,126.79c-26.89-.08-53.78-.21-80.68-.23q-72.27-.06-144.54,0c-3.42,0-6.71,1-6.66-5,.32-40.45.24-80.91.3-121.37l228.79,0c.93,0,1.86.14,2.79.22,2.56,2.66,2.2,6.06,2.21,9.28q.09,53.69,0,107.35c0,3.23.34,6.63-2.26,9.26Z" transform="translate(-0.33)"/><path class="cls-4" d="M316.29,126.28q0-62.94,0-125.89C342.07.31,367.79.17,393.51.17q77.19,0,154.38.08.08,60.69.21,121.37c0,3.35-.52,5-4.5,5Q429.94,126.34,316.29,126.28Z" transform="translate(-0.33)"/><path class="cls-5" d="M572,337.41c21.18-1.19,40.94,4.57,60.32,12.24,32.48,15.58,57.32,39,72.94,71.67,41.56,86.95-10.72,190-105.48,208.16-9.19,1.76-18.38,3.19-27.77,2.4a6.07,6.07,0,0,1-2-4.32c-.17-12-1.15-24,.55-35.92,1.54-3.47,4.76-3.26,7.77-3.49C629.5,584.34,669.3,547.08,675,496c6.17-55.67-31.72-103.27-83.84-113.19a75.92,75.92,0,0,0-13.2-1.69c-2.8,0-5.72-.13-7.23-3.24-1.89-12-.8-24.06-.66-36.1A6.13,6.13,0,0,1,572,337.41Z" transform="translate(-0.33)"/><path class="cls-6" d="M572,337.41q0,20.83-.08,41.67l-.66.86c-5.35,1.93-11,1.71-16.55,2.62-52.4,8.68-90.72,57.73-86.16,110.51a103.88,103.88,0,0,0,89.65,94c4.36.6,8.9.43,13.06,2.28l.66.88.09,41.66c-34.7.22-65.33-11.15-92.47-32.46-17.77-14-30.74-31.74-41.13-51.59-9.4-21.92-15.15-44.64-13.85-68.67,2.31-42.68,19.14-78.45,51.78-106.37C503.83,349.26,535.71,337.33,572,337.41Z" transform="translate(-0.33)"/><path class="cls-7" d="M148.5,210.8c18.71,0,37.41.14,56.12-.09,4.64-.05,6.69.89,6.49,6.09-.4,10-.3,20.1,0,30.15.12,4.4-1,6.11-5.77,6.08q-57.52-.27-115,0c-4,0-5.9-.79-5.77-5.35q.45-15.78,0-31.56c-.13-4.58,1.76-5.39,5.77-5.36C109.68,210.89,129.09,210.81,148.5,210.8Z" transform="translate(-0.33)"/><path class="cls-8" d="M148.11,295.06c18.7,0,37.4.16,56.1-.1,5-.07,7.12,1.13,6.9,6.59-.41,9.8-.27,19.63-.05,29.44.1,4.28-.82,6.32-5.73,6.29q-57.51-.24-115,0c-4.83,0-5.91-1.87-5.81-6.22.24-10.05.28-20.11,0-30.15-.14-4.7,1.62-6,6.1-5.93C109.78,295.18,129,295.06,148.11,295.06Z" transform="translate(-0.33)"/><path class="cls-8" d="M147.83,421.45c-18.69,0-37.4-.16-56.09.1-5.28.08-7.57-1.07-7.28-6.93.49-9.79.26-19.63.08-29.44-.07-3.95.78-5.95,5.36-5.93q57.85.19,115.7,0c4.5,0,5.53,1.81,5.45,5.85-.19,10-.3,20.1,0,30.14.17,5-1.66,6.36-6.46,6.3C185.7,421.32,166.77,421.45,147.83,421.45Z" transform="translate(-0.33)"/><path class="cls-8" d="M316.27,253c-18.64,0-37.3-.27-55.94.09-6,.11-7.58-1.89-7.32-7.57.42-9.07.43-18.19,0-27.26-.27-5.69,1.33-7.69,7.32-7.57,18.64.35,37.3.1,55.95.09l.09.09c1.7,1.83,2.05,4.11,2.09,6.45q.26,14.56,0,29.14c0,2.33-.39,4.62-2.09,6.44Z" transform="translate(-0.33)"/><path class="cls-8" d="M316.27,337.24c-18.64,0-37.3-.27-55.94.09-6,.11-7.58-1.89-7.32-7.57.42-9.07.43-18.19,0-27.26-.27-5.69,1.33-7.69,7.32-7.57,18.64.35,37.3.1,55.95.09l.09.09c1.7,1.83,2.05,4.11,2.09,6.45q.26,14.56,0,29.14c0,2.33-.39,4.62-2.09,6.44Z" transform="translate(-0.33)"/><path class="cls-8" d="M316.27,421.5c-18.64,0-37.3-.27-55.94.09-6,.11-7.58-1.89-7.32-7.57.42-9.07.43-18.19,0-27.26-.27-5.69,1.33-7.69,7.32-7.57,18.64.35,37.3.1,55.95.09l.09.09c1.7,1.83,2.05,4.11,2.09,6.45q.26,14.56,0,29.13c0,2.34-.39,4.63-2.09,6.45Z" transform="translate(-0.33)"/><path class="cls-9" d="M484.46,252.93c-18.94,0-37.87-.11-56.81.09-4.5,0-6.22-1.25-6.09-5.94.3-10,.26-20.11,0-30.15-.11-4.36,1-6.24,5.8-6.22q57.51.25,115,0c4.18,0,5.83,1.19,5.73,5.57-.25,10.28-.29,20.57,0,30.85.14,4.79-1.76,5.89-6.17,5.85C522.8,252.83,503.63,252.93,484.46,252.93Z" transform="translate(-0.33)"/><path class="cls-9" d="M316.37,252.88v-42c18.89,0,37.77.08,56.66-.12,4.57,0,6.78.89,6.59,6.11-.36,10-.36,20,0,30.06.19,5.21-2,6.16-6.59,6.11C354.14,252.81,335.26,252.9,316.37,252.88Z" transform="translate(-0.33)"/><path class="cls-9" d="M316.37,337.14v-42c18.89,0,37.77.08,56.66-.13,4.57-.05,6.78.9,6.6,6.11q-.56,15,0,30.07c.18,5.21-2,6.16-6.6,6.11C354.14,337.07,335.26,337.16,316.37,337.14Z" transform="translate(-0.33)"/><path class="cls-9" d="M316.37,421.4v-42c18.89,0,37.77.08,56.66-.13,4.57-.05,6.78.9,6.6,6.11q-.56,15,0,30.07c.18,5.21-2,6.16-6.6,6.11C354.14,421.33,335.26,421.42,316.37,421.4Z" transform="translate(-0.33)"/><path class="cls-8" d="M571.91,379.08c26.45.35,50,8.69,69.66,26.5,28,25.32,40.38,57,34.38,94.34-7.57,47.05-36,75.92-81.84,87.89-7.25,1.89-14.72,2.3-22.2,2.41l.06-.55c-2.46-2.39-2.24-5.53-2.25-8.52q-.13-32.86,0-65.73c0-2.79,0-5.62,1.69-8.08,2.83-2.76,6.48-2.35,9.94-2.37,14.27-.1,28.55,0,42.83-.07,8.08-.06,8.68-.72,8.75-8.93.06-7.49,0-15,0-22.47,0-4.43-1.95-6.31-6.35-6.32-8.66,0-17.33.17-26-.08-7.93-.22-9.48-1.74-9.72-9.53-.24-7.95,0-15.91-.1-23.87s-.66-8.34-8.32-8.66c-3.69-.16-7.56.49-10.8-2.1-1.86-2.34-1.89-5.14-1.92-7.91q-.15-13.83,0-27.67c0-2.74,0-5.6,2.22-7.74Z" transform="translate(-0.33)"/><path class="cls-1" d="M571.86,507.29q.06,41.19.11,82.38c-25.09.46-47.36-7.61-66.5-23.47-27.31-22.63-39.93-52.09-38.83-87.52,1.46-47.41,41.71-91.94,88.64-98,5.55-.72,11.05-1.93,16.69-1.05q0,21.54-.11,43.06l-.85.93c-3.71,2-7.76,1.27-11.68,1.37s-6.24,1.44-6.27,5.69q-.19,34.32,0,68.65c0,4.26,2.4,5.57,6.26,5.67s8-.61,11.7,1.36Z" transform="translate(-0.33)"/><path class="cls-10" d="M571.86,422.68c.93.06,1.87.1,2.8.18,6,.46,13.91-2.63,17.34,1.34,2.93,3.39.91,11.1,1,16.91.07,6.3.26,12.62-.07,18.91-.2,4,1.12,5.15,5.09,5.06,10.74-.27,21.49.09,32.22-.19,4.08-.1,5.08,1.29,5,5.15-.23,10.74-.27,21.49,0,32.23.11,4.16-1.43,5-5.21,4.92-19.38-.11-38.76,0-58.15.1l.15-.37c-2.56-2.61-2.3-6-2.31-9.19q-.09-32.75,0-65.49c0-3.22-.25-6.58,2.31-9.19Z" transform="translate(-0.33)"/><path class="cls-11" d="M572,423.05v83.87c-6.74-.06-15.48,2.43-19.69-.87-4.49-3.51-1.31-12.66-1.38-19.33-.22-19.39.07-38.8-.19-58.2-.06-4.65,1.3-6.11,5.85-5.74C561.71,423.19,566.87,423,572,423.05Z" transform="translate(-0.33)"/></svg>