<svg id="Layer_1" data-name="Layer 1" xmlns="http://www.w3.org/2000/svg" viewBox="0 0 584.09 710.01"><defs><style>.cls-1{fill:#e5e5e5;}.cls-2{fill:#0071bb;}.cls-3{fill:#754c24;}.cls-4{fill:#947556;}.cls-5{fill:#29aae1;}.cls-6{fill:#faaf3b;}.cls-7{fill:#999;}.cls-8{fill:#d94836;}.cls-9{fill:#989898;}.cls-10{fill:#2aabe1;}.cls-11{fill:#fab03c;}</style></defs><path class="cls-1" d="M552.21,715H538.34c-21.85-5.12-31.43-17.19-31.81-40.08,0-1.85,0-3.69,0-5.54-.05-11.26-.05-11.29-11.65-11.29h-476c-1.61,0-3.24.13-4.84,0-5.13-.33-6.74,2.2-6.93,7.09-.23,6.06,1.8,12.55-2.55,18.07-5.32-4.19-6.24-25.78-1.17-29.84,2.89-2.31,6.51-2.15,10-2.16,16.18-.08,32.35,0,48.53,0,11.92,0,11.95,0,11.95-11.75v-493c0-19.41-.06-38.83,0-58.24.06-11.77,2.07-13.74,13.68-13.89,4.16-.06,8.33-.16,12.48,0,5,.2,8.71-.85,8.72-7a7,7,0,0,1,2.48-5.52c4.48.34,3.63,4.11,3.75,6.63.23,4.84,2.67,6.34,7,6.1,1.81-.1,3.65-.1,5.47,0,4.29.18,6.32-1.72,6.23-6.07a16.65,16.65,0,0,1,.84-6.76c.64-1.51,1-3.88,3.74-2.31,1.84,2.34,2,5.16,1.91,7.88-.26,5.47,2.38,7.15,7.52,7.13q24.8-.1,49.59,0c3.64,0,7.38-.32,10.74,1.67,2.95,2.63,2.72,6.23,2.73,9.64.09,22.62.2,45.25,0,67.86-.13,12.94-7.77,21.11-19.5,21.53s-20.08-7.27-21.17-20c-.9-10.58-.11-21.23-.37-31.84-.18-7.23-.89-7.72-9.69-7.64-8,.07-8.68.6-8.77,7.89-.13,10.85-.21,21.7,0,32.54.43,21.08,16.43,37.53,37.6,38.88,19.56,1.24,37.7-14,40.7-34a114.22,114.22,0,0,0,1.23-17.23c0-18.93-.08-37.86,0-56.79,0-3.84-.56-8,3-10.94,3.18-1.81,6.69-1.62,10.14-1.62q162.9,0,325.81,0c12.64,0,14.37,1.76,14.37,14.49q0,293.91,0,587.83c0,8-1.41,15.61-5.8,22.47C572.17,708.71,563.64,714.25,552.21,715Z" transform="translate(0 -4.99)"/><path class="cls-2" d="M32.18,715c-5.43-3.3-11.76-4.9-16.49-9.56a39.14,39.14,0,0,1-11.5-22.33c0-6.7.46-13.42,0-20.07-.41-6,1-8.27,7.74-8.15,23.55.42,47.11.06,70.66.06q208.89,0,417.77,0c10.44,0,8.88-1.22,9,9.35.06,4.84-.09,9.7.05,14.54.43,16,9.67,28.79,24.63,34.29,1.45.53,3.33.15,4.28,1.86Z" transform="translate(0 -4.99)"/><path class="cls-3" d="M182.29,6.16c28.33,3.36,49.6,28.59,50.52,59.94.11,3.67.25,7.35.37,11-.11,25.16-.27,50.31-.33,75.47,0,15-5,27.73-17.36,36.66-13.47,9.7-28.25,11.3-43.16,4-15.1-7.42-23.28-20-23.69-37-.3-12.46.05-24.94-.16-37.4-.07-4,.68-5.6,5.22-5.67,18.73-.29,18.73-.47,18.73,18.44,0,7.39-.12,14.78,0,22.17.24,11.71,7.47,19.45,18,19.52s18-7.57,18-19.31c0-25.63-.15-51.25-.25-76.87-3.13-3.53-2.07-7.85-2.11-11.89-.16-14.37-7-24.71-19.61-30.76S161.85,31,150.88,39.18c-4.56,3.4-7.12,8.33-9.59,13.29-1.1,2.22-1.44,4.93-3.89,6.32-2.06,4.13-1.29,8.6-1,12.85.27,4.73-1.57,6.14-5.87,5.52a17.85,17.85,0,0,0-2.07,0c-5-.16-11.37,1.49-14.64-1-3.58-2.68-.46-9.44-1.39-14.35C115.33,32.19,133.46,12,162.31,6.05c.58-.12,1.07-.69,1.61-1.06H175C177.24,6.61,180,4.92,182.29,6.16Z" transform="translate(0 -4.99)"/><path class="cls-4" d="M182.29,6.16C179.74,6.5,177.19,7,175,5h6.93A9.28,9.28,0,0,1,182.29,6.16Z" transform="translate(0 -4.99)"/><path class="cls-5" d="M280.67,510.43c0,21.94-.15,43.89.12,65.82.06,5.15-1.38,6.71-6.61,6.69q-65.48-.3-131,0c-5.44,0-7.05-1.55-7-7q.31-65.49,0-131c0-5.52,1.6-7.05,7-7q65.49.29,131,0c5.25,0,6.65,1.57,6.58,6.69C280.52,466.54,280.67,488.49,280.67,510.43Z" transform="translate(0 -4.99)"/><path class="cls-6" d="M512.16,219.88c26.74,47.57-5.08,111.67-60,120.67-28.5,4.66-53.31-2.89-73.91-23.42-.2-2.28,1-4,2.49-5.44C399.43,293.14,417.57,274,436.87,256c22.79-11.73,45.81-23,68.7-34.53C507.63,220.46,509.72,219.43,512.16,219.88Z" transform="translate(0 -4.99)"/><path class="cls-2" d="M437.39,257.3l-59.17,59.83c-35.88-32.2-32.75-94.46,6.29-125,15.37-12,32.69-18.61,52.36-18.48,3,2.26,2.88,5.64,2.9,8.82.13,22.13.1,44.26,0,66.39C439.8,251.88,439.44,254.83,437.39,257.3Z" transform="translate(0 -4.99)"/><path class="cls-7" d="M430.87,498.57c-31.66,0-63.31-.11-95,.11-5.35,0-7.15-1.31-7.1-6.92C329,474,328.75,474,346.44,474H524.57c9.33,0,9.33,0,9.35,8.92,0,15.69,0,15.69-15.72,15.69Z" transform="translate(0 -4.99)"/><path class="cls-7" d="M431.56,522.31c31.65,0,63.31.13,95-.11,5.75,0,7.55,1.74,7.52,7.48-.08,17.23.13,17.23-17.1,17.23-59.84,0-119.68-.09-179.52.14-6.41,0-8.86-1.23-8.65-8.24.51-16.48.14-16.5,16.84-16.5Z" transform="translate(0 -4.99)"/><path class="cls-8" d="M437.39,257.3q-.09-37.71-.19-75.41c0-2.76-.22-5.52-.33-8.27,28.82-2.32,64.23,19.44,75.29,46.26Q475.35,239.74,437.39,257.3Z" transform="translate(0 -4.99)"/><path class="cls-9" d="M408,570.71c23.57,0,47.14.16,70.7-.12,5.5-.07,7.05,1.57,7,7-.17,16.85.05,16.85-16.48,16.85-44.36,0-88.72-.11-133.08.13-5.82,0-7.41-1.68-7.32-7.4.25-16.49,0-16.49,16.8-16.49Z" transform="translate(0 -4.99)"/><path class="cls-5" d="M244.58,293.41c0,18-.14,36,.1,54,.06,4.85-.87,6.9-6.38,6.88-17.57-.06-17.57.18-17.57-17.68,0-31.85.12-63.7-.12-95.55,0-5.45.92-7.63,7-7.51,16.94.34,16.94,0,16.94,16.92Z" transform="translate(0 -4.99)"/><path class="cls-9" d="M473.82,426.41c17.77,0,35.54.15,53.31-.09,4.9-.07,6.92,1,6.92,6.45,0,17.41.24,17.41-17.29,17.41-31.85,0-63.7-.13-95.55.12-5.76,0-8.12-1-8-7.48.39-16.4.05-16.41,16.26-16.41Z" transform="translate(0 -4.99)"/><path class="cls-10" d="M148.57,306.63c0,13.61-.2,27.23.1,40.84.11,4.92-.92,6.86-6.39,6.84-18.09-.08-18.09.16-18.09-18.08,0-24,.12-48-.09-72,0-5,1.23-6.81,6.57-6.8,17.9.06,17.9-.16,17.9,17.36Z" transform="translate(0 -4.99)"/><path class="cls-6" d="M292.88,312.42c0,12.21-.12,24.43.07,36.65.07,3.91-1.26,5.05-5.14,5.2C269,355,269,355.1,269,336.38c0-20.05.18-40.11-.11-60.16-.08-5.28,1.62-6.56,6.68-6.54,17.29.09,17.29-.11,17.29,17.15Z" transform="translate(0 -4.99)"/><path class="cls-11" d="M172.39,317.69c0-9.68.24-19.36-.1-29-.17-5,1.11-6.81,6.48-6.81,18.08,0,18.08-.2,18.08,17.95,0,15.89-.16,31.78.09,47.67.09,5-1.32,6.81-6.6,6.83-18,.05-18,.25-18-18Z" transform="translate(0 -4.99)"/><path class="cls-9" d="M365,438.06c.22-13.43-1.87-11.59,11.77-11.6,13.85,0,12-1.83,12,12.11,0,13.42,1.78,11.47-11.8,11.59C365,450.26,365,450.18,365,438.06Z" transform="translate(0 -4.99)"/></svg>