<svg id="Layer_1" data-name="Layer 1" xmlns="http://www.w3.org/2000/svg" viewBox="0 0 634.55 661.32"><defs><style>.cls-1{fill:#f7bb1e;}.cls-2{fill:#0092b8;}.cls-3{fill:#f4a822;}.cls-4{fill:#57c2c0;}.cls-5{fill:#f8d962;}.cls-6{fill:#f69626;}.cls-7{fill:#e2e3e1;}.cls-8{fill:#f69726;}.cls-9{fill:#fefefd;}.cls-10{fill:#b1b0b3;}</style></defs><path class="cls-1" d="M177.17,325.16l22.7-.45a7.55,7.55,0,0,1,4.54-1.79c12.52-.35,25-.56,37.54.13a7.24,7.24,0,0,1,3.3,1.19c3.05,3.6,2.64,7.54,1.13,11.58-3.4,3.7-7.93,2.44-12,2.52-15.73.29-20.79,5.37-21.05,21-.22,13.25.82,26.5-1.5,39.72-7.41,42.32-46.05,75.57-89,76.09-16.36.2-32.71-.06-49.07.07-15.57.12-23.91,11.41-19.75,26.3,1.18,4.22,4.44,3.69,7.4,3.72,12.8.12,25.6,0,38.4.1,3.45,0,7.23-.68,9.89,2.62,1.53,3.12,1.25,6.48,1.26,9.78,0,15.65,0,31.3,0,46.95.05,8.09.6,8.7,8.32,8.75,15.88.09,31.77-.11,47.65.09,5.84.08,8-2.25,7.93-8-.15-16.12-.1-32.24,0-48.36,0-3.52-.4-7.18,2-10.27,2.24-1.65,4.86-1.81,7.47-1.81,20.36,0,40.73-.3,61.09.12,20.34-.4,40.68-.14,61-.13,2.6,0,5.22.12,7.5,1.67,2.6,3,2.17,6.65,2.19,10.16.09,15.89,0,31.78.06,47.66.05,8.27.64,8.83,9,8.86,15.65.07,31.31-.12,46.95.09,5.84.08,8-2.2,8-7.95-.16-16.12-.11-32.25,0-48.38,0-3.51-.4-7.17,2-10.27,2.45-1.82,5.34-1.84,8.18-1.86,17.3-.08,34.61-.16,51.91,0,9.64.1,11.42,2.51,9.88,12.35-1.51,3.14-4.51,3.05-7.32,3.23-3.31.21-6.64,0-9.95.2-9.85.75-15.66,6.51-16.1,16.43-.39,8.76-.1,17.53-.11,26.3-.08,52.62-41.27,93.85-93.88,93.93-15.4,0-30.8-.09-46.21,0-13.72.12-19.22,5.82-19.54,19.6-.1,4.15,1.1,8.6-2,12.31h-11.4c-3-3.45-2.05-7.66-2.06-11.6q-.09-73,0-146c0-11-.3-11.31-11.06-11.07-12.85.29-18.51,6-18.92,18.86-.43,13.49.92,27-1.39,40.49a93.19,93.19,0,0,1-91.58,77.41c-15.66,0-31.32-.09-47,0-13.84.12-19.29,5.71-19.66,19.51-.11,4.16,1,8.62-2.07,12.31a11.36,11.36,0,0,1-1.41.19c-10,.3-10,.3-10-9.42q0-173.6-.13-347.2c0-6.22,1.18-8.46,8-8.27,20.15.57,40.31.32,60.46.39,2.78,2.9,2.31,6.58,2.32,10.08.09,15.61,0,31.23.07,46.85,0,8.35.62,8.93,8.84,9q23.41.12,46.84,0c7.36-.05,8.06-.76,8.12-8.25.13-15.85,0-31.7.08-47.55C174.86,331.74,174.39,328.06,177.17,325.16Z" transform="translate(-40.16 -28.48)"/><path class="cls-2" d="M473.54,74.38c27,0,54.09-.43,81.13-.06,18.94.25,32.72,15.7,32.74,35.83q.08,110.67,0,221.36c0,3.08.06,6.17.09,9.25-.28,3.08-2.92,3.46-5.06,4.09-11.29,3.31-22.48,7-33.85,10-2.81.75-6,2.37-8.11-1.45-1.41-4.16-1-8.46-1-12.7q0-103.08,0-206.16c0-12.5,0-12.5-12.58-12.52-14.46,0-28.91,0-43.37,0-3.52,0-7.15.35-10.32-1.82-1.68-1.91-2-4.29-2-6.66q-.28-16.32,0-32.66C471.29,78.52,471.66,76.16,473.54,74.38Z" transform="translate(-40.16 -28.48)"/><path class="cls-2" d="M245.24,324.94l-45.37-.23q0-106.29,0-212.58c0-24.14,13.77-38,37.82-37.95,25.36,0,50.71.13,76.07.2.31.36.84.68.9,1.07,2.15,14.9,3,29.79-.44,44.64-3.1,2.31-6.75,1.94-10.27,2-15.4.07-30.81,0-46.21,0-9.45,0-9.94.51-10,10.15q-.06,90.3-.07,180.59C247.71,317,248.77,321.47,245.24,324.94Z" transform="translate(-40.16 -28.48)"/><path class="cls-3" d="M256.86,689.47c0-5.22-.08-10.44,0-15.65.21-11,7.33-18.19,18.3-18.28,16.6-.12,33.2,0,49.8,0,45.71,0,83.11-32.29,90.24-77.37,2.09-13.25.78-26.46,1.16-39.68.38-12.94,6.85-19.66,19.8-19.73,4.74,0,9.48,0,14.23,0,2.53,2.07,2.43,5,2.45,7.84.05,12.56.28,25.12-.1,37.67.37,12.53.12,25.06.13,37.59,0,2.84,0,5.71-2,8.09q-.12,37-.22,74c0,3.17.45,5.88-4.47,5.87Q351.53,689.47,256.86,689.47Z" transform="translate(-40.16 -28.48)"/><path class="cls-3" d="M51.69,689.47c0-5.22-.09-10.44,0-15.66.21-11,7.34-18.18,18.33-18.27,16.37-.12,32.75-.24,49.12,0,45.71.71,85.23-34.08,91-77.53,1.69-12.83.75-25.53,1.07-38.29.36-14.57,6.38-21,20.7-21,13.57,0,13.57,0,13.57,13.42V689.47q-69.56.12-139.12.22C88.12,689.71,69.9,689.55,51.69,689.47Z" transform="translate(-40.16 -28.48)"/><path class="cls-2" d="M450.88,609.92v-45.6c3.16-2.9,7.12-2.23,10.85-2.24,22.31-.08,44.63,0,66.95-.05,10.7,0,10.85-.15,10.86-10.59q0-38.82,0-77.64c0-3.55-.25-7.14.82-10.6,1.16-3,3.87-3.87,6.58-4.74,11.17-3.58,22.54-6.51,33.74-10,2.23-.7,4.56-1.42,6.65.47,0,42.18.16,84.35,0,126.53-.06,19.81-14.85,34.35-34.83,34.43C518.64,610,484.76,609.91,450.88,609.92Z" transform="translate(-40.16 -28.48)"/><path class="cls-4" d="M313.75,119.57q0-22.59,0-45.19c13.28-.07,26.56-.37,39.83-.09,5.18.11,5.74-1.47,4.5-6-3.13-11.41-5.71-23-8.74-34.41-1-3.64-1.09-5.43,3.74-5.39q40.56.32,81.11,0c4.84,0,4.7,1.75,3.74,5.39-3,11.44-5.6,23-8.73,34.41-1.25,4.54-.68,6.12,4.5,6,13.27-.28,26.55,0,39.83.09q0,22.59,0,45.19c-2.54,2.84-6,2.48-9.27,2.48q-70.63.12-141.27,0C319.76,122.05,316.29,122.41,313.75,119.57Z" transform="translate(-40.16 -28.48)"/><path class="cls-1" d="M541.91,354.63c15.32-4.24,30.66-8.42,45.61-13.87l14-3.51a4,4,0,0,1,1.77,2.93c.36,14.45,3.75,28.83,1.13,43.35-4.06,5.49-10.79,4.92-16.28,7.18q-23.21,6.93-46.4,13.92c-32.14,9.24-64,19.26-96.12,28.68-5.36,1.58-10.54,4.51-16.49,3.26-3.87-3.94-4.44-9.28-6-14.2-2.31-7.45-4.49-14.95-6.77-22.41-.82-2.69-2-5.4-.41-8.23,6.38-4.45,14.1-5.27,21.26-7.43q47.49-14.31,95-28.5C535.39,354.87,538.5,353.42,541.91,354.63Z" transform="translate(-40.16 -28.48)"/><path class="cls-5" d="M177.17,325.16c0,20.4-.2,40.8,0,61.2.05,5-.83,7.22-6.54,7.11q-27.75-.53-55.51,0c-5.71.11-6.59-2.15-6.54-7.11.2-20.4,0-40.8,0-61.2Z" transform="translate(-40.16 -28.48)"/><path class="cls-6" d="M603.16,384.54c.79-15.81-2-31.49-1.64-47.28,7.5-2.69,14.94-5.56,22.91-6.58,3.06,6.14,4.19,40.72,1.54,47q1.17,23.31,2.36,46.62c.43,8.17-2.24,12.22-10.08,14.76-10.28,3.33-20.6,6.54-30.9,9.81l-45.64,13.34c-7,5.59-9.91,4.83-12.57-3.26-5.53-16.85-5.53-16.85,12.45-22.79,15.27-4.27,30.39-9.08,45.58-13.64,16.36-5.24,15.1-1.95,15.49-21.39C602.77,395.64,599.75,390,603.16,384.54Z" transform="translate(-40.16 -28.48)"/><path class="cls-1" d="M626,377.72c.12-15.7-2.44-31.31-1.54-47,7.4-2.35,14.69-5.22,22.24-6.94a22.57,22.57,0,0,1,27.17,15.83c3.34,11.83-3.15,23.87-15.48,28C647.64,371.19,636.77,374.36,626,377.72Z" transform="translate(-40.16 -28.48)"/><path class="cls-7" d="M541.93,437.68c-1.73.72-3.41,1.58-5.19,2.13-10.38,3.23-10.39,3.21-7.45,13.3a14.87,14.87,0,0,1,.89,2.69c.61,8,4.6,9.82,11.53,6.45,0,32.25,0,64.5.23,96.74,0,4.61-1.54,5.44-5.7,5.41-28.46-.15-56.91-.08-85.36-.07q-.24-22.8-.47-45.6c.06-.47.16-.94.18-1.41.3-10,.3-10-9.42-10q-29.4.07-58.82.2c-2.37,1.92-5.22,2.06-8.07,2.07q-26.22.11-52.45,0c-2.85,0-5.7-.15-8.08-2.07l-68.13-.27c-2.57-2.65-2.45-6.05-2.45-9.35q-.07-76.38,0-152.77c0-3.07-.08-6.2,2.06-8.8q0-5.7,0-11.4.1-71.85.22-143.71c0-18,.24-36.06-.14-54.08-.12-5.72,1.09-7.66,7.25-7.55,20.38.37,40.78,0,61.18,0h159.8c20.62.06,41.24.35,61.85.05,5.5-.08,6.56,1.61,6.55,6.77q-.21,114.12,0,228.25l-99.68,30.13c-8.59,2.59-17.2,5.13-25.81,7.69-6.22,4.84-14.16,5.14-21.12,8-16.16,5.54-32.68,9.9-49,15a25.41,25.41,0,0,0-10.82,6.5C326.75,430.92,316.4,438.22,308,449c9.29,2.28,18.24,2.93,26.79,5.2,12.68,3.37,24.77,1.85,36.93-2.43s24.95-7.61,37.48-11.26c6.75-1.25,12.92-5.05,20.07-4.54q51.42-15.26,102.85-30.48c3.16-.93,6.41-1.57,9.62-2.34a5.93,5.93,0,0,1,2.14,5C543.44,418,546.3,428.07,541.93,437.68Z" transform="translate(-40.16 -28.48)"/><path class="cls-3" d="M245.23,336.34q.12,70.88.24,141.73c0,9.73.1,19.46.15,29.19l-68.63.11c-2.49,2.29-5.62,2.21-8.67,2.22q-25.44.12-50.89,0c-3.05,0-6.18.07-8.67-2.22-16.86,0-33.72-.17-50.57.05-4.82.06-7.09-1.22-6.57-6.37.34-3.29,0-6.64.08-10,.29-10.54,7.42-17.81,18-17.91,16.86-.15,33.72,0,50.57,0,45.18,0,82.86-32.67,89.79-77.26,2.06-13.28.78-26.49,1.16-39.73.38-13,6.82-19.72,19.78-19.79C235.73,336.32,240.48,336.34,245.23,336.34Z" transform="translate(-40.16 -28.48)"/><path class="cls-5" d="M313.75,507.53h68.6c0,20.4-.2,40.81,0,61.21,0,5-.83,7.22-6.54,7.11q-27.75-.52-55.51,0c-5.72.11-6.59-2.16-6.54-7.11C314,548.34,313.79,527.93,313.75,507.53Z" transform="translate(-40.16 -28.48)"/><path class="cls-5" d="M108.76,507.37H177c0,20.6-.06,41.2.16,61.8.06,4.69-1,6.74-6.22,6.66q-28.05-.42-56.11,0c-5.25.08-6.27-2-6.22-6.66C108.82,548.57,108.73,528,108.76,507.37Z" transform="translate(-40.16 -28.48)"/><path class="cls-6" d="M416.45,644.17c-.2,13.24,1.73,11.26-12.7,11.3-12,0-10,1.41-10.06-13.19,0-11.48-1.32-9.42,13.72-9.54C418,632.65,416.29,632.08,416.45,644.17Z" transform="translate(-40.16 -28.48)"/><path class="cls-6" d="M211.27,644.31c-.2,13.09,1.73,11.12-12.84,11.16-11.84,0-9.86,1.47-9.92-13.32,0-11.32-1.12-9.32,13.15-9.41C212.86,632.67,211.11,631.86,211.27,644.31Z" transform="translate(-40.16 -28.48)"/><path class="cls-2" d="M541.93,437.68l-.21-34.57c15-5.44,30.29-9.7,45.64-13.86a5.92,5.92,0,0,1,2.08,5.07c-.47,10,2.35,20.26-1.93,30C572.4,429.06,557.36,434,541.93,437.68Z" transform="translate(-40.16 -28.48)"/><path class="cls-8" d="M429.25,435.93a85.58,85.58,0,0,1-19.91,5.92c-3.28,1.56-4.34-1-5-3.12-3.48-11.42-7.21-22.78-10.21-34.35a5.56,5.56,0,0,1,.92-5.31c6.87-3,14.11-4.85,21.37-6.61Q422.84,414.2,429.25,435.93Z" transform="translate(-40.16 -28.48)"/><path class="cls-9" d="M587.51,424.34l-.15-35.09,15.8-4.71c.52,9.63.81,19.28,1.66,28.88.41,4.73-1.29,6.89-5.77,7.77C595.15,422,591.35,423.27,587.51,424.34Z" transform="translate(-40.16 -28.48)"/><path class="cls-10" d="M279.66,187.82c0-7.1-.09-14.21,0-21.31.13-8.16,4.16-12.42,12.13-12.5q22-.21,44,0c8,.08,12.09,4.33,12.16,12.46q.17,21.67,0,43.34c-.07,8.41-4.25,12.46-12.83,12.52q-21.31.13-42.63,0c-8.84-.06-12.79-4.18-12.88-13.2C279.6,202,279.66,194.92,279.66,187.82Z" transform="translate(-40.16 -28.48)"/><path class="cls-10" d="M314.21,256.56c7.11,0,14.21-.1,21.32,0,8.13.14,12.39,4.17,12.47,12.15q.22,22,0,44c-.08,8-4.35,12.06-12.49,12.13q-21.66.18-43.34,0c-8.4-.07-12.43-4.26-12.49-12.85q-.15-21.31,0-42.63c.06-8.83,4.18-12.77,13.21-12.86C300,256.5,307.11,256.55,314.21,256.56Z" transform="translate(-40.16 -28.48)"/><path class="cls-1" d="M395.05,399.07c2.53,13.75,7.83,26.73,11.33,40.21a3.14,3.14,0,0,0,3,2.57c-18.3,5.58-36.51,11.45-54.93,16.56-6,1.66-12.1-1.35-18.14-2.33-10.69-1.72-21.34-3.68-33.64-5.83,13-12.17,24.32-24,37-34.09,5.17-4.12,13.23-4.66,20-6.69C371.44,406,383.25,402.53,395.05,399.07Z" transform="translate(-40.16 -28.48)"/><path class="cls-10" d="M439,302.15c20.65,0,41.3.18,61.94-.12,5.4-.08,6.82,1.61,6.78,6.87-.12,16,.1,16.05-16,16.05-38,0-75.94-.13-113.9.13-5.73,0-7.21-1.7-7.14-7.24.22-15.69,0-15.69,15.64-15.69Z" transform="translate(-40.16 -28.48)"/><path class="cls-10" d="M438.87,222.36c-20.41,0-40.82-.16-61.23.11-5.21.07-7-1.28-6.92-6.73.11-16.18-.13-16.18,15.87-16.18,38,0,75.93.1,113.9-.11,5.46,0,7.38,1.28,7.29,7.08-.25,15.82,0,15.83-15.52,15.83Z" transform="translate(-40.16 -28.48)"/><path class="cls-10" d="M462.29,256.55c13,0,26.09.15,39.14-.07,4.39-.08,6.25.92,6.33,5.84.26,17,.46,17-16.43,17-22.54,0-45.07-.13-67.61.1-5.25.05-7.53-.93-7.43-6.94.26-15.95-.05-16,16.11-16Z" transform="translate(-40.16 -28.48)"/><path class="cls-10" d="M462.4,154c13.05,0,26.1.15,39.14-.09,4.54-.08,6.15,1.2,6.21,6,.23,16.91.41,16.91-16.54,16.91-22.77,0-45.54-.12-68.32.09-4.83.05-6.56-1.22-6.57-6.33,0-16.56-.24-16.56,16.19-16.56Z" transform="translate(-40.16 -28.48)"/><path class="cls-10" d="M381.8,176.76c-12.93-.23-10.85,1.86-10.9-13.09,0-11.51-1.53-9.65,12.86-9.66,11.76,0,9.78-1.76,9.85,13.4C393.66,178.42,394.76,176.58,381.8,176.76Z" transform="translate(-40.16 -28.48)"/><path class="cls-10" d="M381.92,279.35c-13-.24-11,1.9-11-13,0-11.7-1.76-9.74,13.45-9.78,11.11,0,9.19-1.53,9.26,13.28C393.66,281,394.73,279.17,381.92,279.35Z" transform="translate(-40.16 -28.48)"/><path class="cls-6" d="M211.27,462c-.19,13,1.69,11-12.93,11.07-11.74,0-9.77,1.45-9.83-13.42,0-11.2-1.16-9.22,13.24-9.31C212.92,450.29,211.11,449.53,211.27,462Z" transform="translate(-40.16 -28.48)"/><path class="cls-7" d="M302.46,187.84c.23-13-1.9-11,13-11,11.71,0,9.75-1.76,9.79,13.45,0,11.12,1.52,9.2-13.28,9.26C300.8,199.58,302.63,200.65,302.46,187.84Z" transform="translate(-40.16 -28.48)"/><path class="cls-7" d="M325.26,291.05c-.24,13.06,1.9,11-12.95,11.05-11.73,0-9.77,1.76-9.8-13.43,0-11.15-1.51-9.21,13.25-9.28C326.9,279.33,325.08,278.26,325.26,291.05Z" transform="translate(-40.16 -28.48)"/></svg>