<?xml version="1.0" encoding="utf-8"?>
<!-- Generator: Adobe Illustrator 25.0.0, SVG Export Plug-In . SVG Version: 6.00 Build 0)  -->
<svg version="1.1" id="Layer_1" xmlns="http://www.w3.org/2000/svg" xmlns:xlink="http://www.w3.org/1999/xlink" x="0px" y="0px"
	 viewBox="0 0 511.4 463" style="enable-background:new 0 0 511.4 463;" xml:space="preserve">
<style type="text/css">
	.st0{fill:#050505;}
</style>
<path class="st0" d="M123.2,0.5C109.4,2.2,91.8,9.3,81,17.4C68.8,26.8,59.1,39,52.5,52.9c-3.9,8.5-4,13.7-0.4,16.5
	C58,74.1,62,71.5,68,59.2c13.1-26.9,37.7-42.6,66.6-42.7c30,0,56.2,17.5,68.2,45.7c3.5,8.3,5.4,17.6,4.1,20.7
	c-0.5,1.3-3.7,4.7-7.1,7.5c-15,12.3-27.8,35.7-29.9,54.8c-1,8.9-1.8,10.1-7.8,12.8c-18.4,8.1-42.5,6.9-61.7-3.2
	C77.6,143,64.5,122.8,61,94.2c-0.8-6.1-3.3-8.7-8.3-8.7c-7,0-8.8,4.2-7.2,16.2c2.3,16.7,9.1,32.4,19.7,45.4c2.4,3.1,4.3,5.7,4.1,5.8
	s-2.8,0.8-5.8,1.5s-10.5,3.7-16.6,6.7C24.6,172,8.2,192,1.9,216C0.1,222.6,0,227.7,0,298.5C0,373.9,0,374,2.2,378
	c3.3,5.8,8.3,10.6,14.2,13.7c4.6,2.3,4.9,2.3,55.9,2.6l51.2,0.3v21.9c0,19.6,0.2,22.5,2,27.4c2.6,6.9,8.5,13,15.8,16.4l5.7,2.7h217
	l5.7-2.7c7.3-3.4,13.2-9.5,15.8-16.4c1.8-4.9,2-7.8,2-27.4v-21.9l51.3-0.3c50.9-0.3,51.2-0.3,55.8-2.6c5.9-3.1,10.9-7.9,14.2-13.7
	c2.2-4,2.2-4.5,2.5-76.5c0.2-48.2-0.1-74.6-0.8-78.7c-2.9-16.1-10.3-31.1-21.5-43.1c-10.9-11.7-23.1-19.6-36.7-23.8l-5.6-1.7
	l5.9-7.4c15.5-19.5,21.7-40.3,19.7-65.9c-1.8-19.9-10.4-38.7-24.3-53.1c-7-7.3-10.7-8.2-15-3.8c-4,3.9-3.3,7.5,2.6,14.2
	c15.3,17.4,21.6,34.2,20.7,55.2c-0.9,19.2-7.4,33.6-21.3,47.7c-20.6,20.8-49,27.6-76,18.3c-9.1-3.2-9.4-3.5-11-13.5
	c-3.6-22.1-12.4-38.6-28.8-54c-4.6-4.4-8.6-8.7-9-9.6c-1-2.9,3.2-17.8,7.4-25.8c9.2-17.7,24.1-30.3,43.9-37
	c4.7-1.6,9.9-2.3,18.5-2.7c10.4-0.5,13.2-0.2,20.5,1.7c13.2,3.5,14.8,3.6,17.6,0.9c3.2-3.2,3.3-8.4,0.2-11.7
	c-1.4-1.2-6.5-3.2-12.3-4.7c-8-2.2-12.4-2.7-22-2.8c-25.4-0.2-46.8,8.5-64.5,26.3c-12.1,12.1-20.9,27.7-24,42.4
	c-0.6,3.1-1.6,5.6-2.1,5.6s-4.8-1.2-9.6-2.7c-7.8-2.3-10.5-2.6-24.3-2.7c-14.3-0.1-16.3,0.1-25.3,2.8c-5.4,1.6-10,2.7-10.2,2.4
	c-0.2-0.3-1.6-4.4-3-9.2C211.7,33,185.5,8.5,153.5,2C144.5,0.1,131.3-0.5,123.2,0.5z M278.5,87.5C322.6,100,344.9,149.1,325,190
	c-12.5,25.8-37.8,41.8-66,41.8c-40.6,0-73.5-32.9-73.5-73.5c0-22.7,10.5-44.2,28.5-58.1c9.8-7.5,18.3-11.2,35-15.1
	C253.4,84,271.3,85.5,278.5,87.5z M95.7,171c14.1,6.5,21.4,8,38.8,8c13,0,16.8-0.4,23.8-2.3c6-1.6,8.8-2,10.1-1.2
	c1.2,0.6,2.8,3.8,4.1,8.2c2.6,8.6,8.5,20.7,13.5,27.6c5.3,7.5,4.4,10.5-4,13.2c-6.7,2.1-17.4,7.9-18.5,9.9c-1.7,3.2-1.1,7.1,1.5,9.6
	c3.2,3.3,6.4,3.2,14.3-0.6c8.7-4.1,20-6.9,27.8-6.9c5,0,7.9,0.7,14.4,3.5c25.1,11.1,53.5,10.8,76.5-0.7c5.2-2.7,6.6-3,11.8-2.4
	c14.7,1.5,29.3,8.9,41.4,21.1c6.7,6.8,8.9,9.9,12.7,17.6c7.6,15.9,7.6,15.6,7.6,92.7v67.9l-2.3,3.3c-1.4,2-3.1,3.8-5,5.4
	c-2.8,2.1-2.9,2.1-108.7,2.1s-105.9,0-108.7-2.1c-1.9-1.6-3.7-3.4-5.1-5.5l-2.3-3.3l0.4-71.1c0.3-76.3,0.2-73.7,5.6-86
	c1.8-3.8,3.9-7.5,6.2-11.1c2.6-4,3.9-7.2,3.9-9.4c0.2-4.2-3.1-7.8-7.3-8c-0.2,0-0.3,0-0.5,0c-4.8,0-9,4.9-15.2,17.5
	c-8.5,17.3-8.3,16.1-8.7,66.2l-0.4,44.3H75.2c-53.8,0-52.7,0.1-57.5-7l-2.3-3.4l0.3-72.1l0.3-72l2.6-7.2c9.6-26,30.3-43.9,56.1-48.2
	C84.6,167,87.8,167.3,95.7,171z M443,170.2c22.5,5.5,41,23.1,49.6,47.3l2.4,6.5l0.3,72l0.3,72.1l-2.3,3.4c-4.8,7.1-3.7,7-57.5,7
	h-48.2l-0.3-44.3c-0.4-42-0.5-44.6-2.6-51.2c-8.7-28.2-29.9-50.1-57-58.9l-5.2-1.8l4.3-5.1c9.9-11.8,15.3-22.1,18.9-35.8l2.2-8.6
	l6.6,2.3c9.8,3.4,20,4.7,33,4.1c13.6-0.6,21.6-2.5,32.5-7.6C428.8,167.4,431,167.2,443,170.2z"/>
</svg>
