<svg id="Layer_1" data-name="Layer 1" xmlns="http://www.w3.org/2000/svg" viewBox="0 0 719.99 719.93"><defs><style>.cls-1{fill:#48c7ee;}.cls-2{fill:#ebcd92;}.cls-3{fill:#e66e54;}.cls-4{fill:#e2d4aa;}.cls-5{fill:#65d0f1;}.cls-6{fill:#accbb6;}.cls-7{fill:#c8cca6;}.cls-8{fill:#eee;}.cls-9{fill:#fefefe;}.cls-10{fill:#77949d;}</style></defs><path class="cls-1" d="M720,496.39v8.44a11.11,11.11,0,0,0,0,8.44v8.43a11.11,11.11,0,0,0,0,8.44V540c-2.35,11.61-1.61,23.59-5.09,35.13a206.73,206.73,0,0,1-39.35,73.68c-25.86,31.1-58.1,52.4-96.34,65.07-8.08,2.67-16.37,3.68-24.72,4.62-3,.52-6.23-.93-8.87,1.48H540c-.78-.85-1.82-.66-2.81-.7s-2-.15-2.81.7H495c-12.28-2.27-25-1.64-37.06-5.52-25.8-8.28-49.53-20.29-70.36-37.79-1.33-3.78-5.46-4.14-8-6.49-34.74-32.26-57-71.4-64.83-118.31-7.51-44.78-1.2-87.66,19.67-128Q370,355.16,442.15,326.16c28.48-11.42,58.11-15.46,88.63-14.19,3.35.14,6.28,1.89,9.6,1.78,15.53.28,30.24,4.25,44.58,9.85,20.22,6,38.3,16.25,55,28.81,37.76,28.34,63.21,65.25,75.81,110.83,2.63,9.51,2.6,19.39,3.5,29.14C719.42,493.74,718.92,495.2,720,496.39Z" transform="translate(-0.01 -0.03)"/><path class="cls-2" d="M389.45,674.79c19.73,14.87,40.79,27.25,64.42,34.93a239.91,239.91,0,0,0,35.45,8.37c1.94.32,4.35-.4,5.68,1.87H35.17c-12.5-1.82-23-6.81-30-18C1.73,696.6,2.05,690.42,0,684.81V57.68C6.33,30.77,20.58,19.45,48.6,19.38q59.68-.15,119.38,0c4.6,0,9.48-.79,13.36,2.84,1.79,2.16,1.69,4.79,1.75,7.32q.38,15.35,0,30.7c-.07,2.76.05,5.65-2.09,7.89-4,3.2-8.88,2.55-13.5,2.56-34.43.09-68.86,0-103.29.05-2.81,0-5.62,0-8.43.12-4.82.18-7.27,2.63-7.43,7.46-.09,2.57-.12,5.15-.12,7.72V506.9c0,15.72.07,15.78,15.54,15.79,38.64,0,77.29-.06,115.93.08,4.29,0,9-1.15,12.65,2.52.5,3.89-2.3,4.49-5.1,4.89a67.69,67.69,0,0,1-9.12.27q-56.92,0-113.84,0c-2.73,0-5.59-.66-9.38,1.45,44.38,44.62,88.66,88.7,133,133.12,2.41-3.35,1.54-6.23,1.55-8.9.08-39.58,0-79.16.14-118.75,0-3.81-1.24-8.71,4.71-9.93,4,3.18,2.84,7.73,2.86,11.77.16,37.72.09,75.45.08,113.18,0,20.39-1.17,19.33,19.69,19.33q77.68,0,155.38,0C378.25,671.73,384.09,671.9,389.45,674.79Z" transform="translate(-0.01 -0.03)"/><path class="cls-3" d="M405,0l.18,22.39c2.47,2.21,2.92,5.13,2.93,8.22,0,12,.48,24.08-.32,36.11.44,7.48.46,15,.35,22.46-.43,28.27-20.64,48.74-48.9,48.9q-66.74.39-133.48,0c-28.46-.17-48.46-20.41-48.9-48.85q-.1-7,0-14.05c.07-2.89.47-5.61,2.89-7.58q0-22.6,0-45.21C175.58,16.17,175.66,6,180,0Z" transform="translate(-0.01 -0.03)"/><path class="cls-4" d="M554.6,717.05,548.44,720h-2.81C547.59,715.84,551.42,717.43,554.6,717.05Z" transform="translate(-0.01 -0.03)"/><path class="cls-5" d="M720,513.27c-1.88-2.82-2-5.63,0-8.44Z" transform="translate(-0.01 -0.03)"/><path class="cls-5" d="M720,530.14c-2-2.81-1.88-5.63,0-8.44Z" transform="translate(-0.01 -0.03)"/><path class="cls-6" d="M534.38,720a2.58,2.58,0,0,1,2.87-1.17c1,.44.93.84-.06,1.17Z" transform="translate(-0.01 -0.03)"/><path class="cls-7" d="M537.19,720l.06-1.17c1.14-.13,2.27-.24,2.75,1.17Z" transform="translate(-0.01 -0.03)"/><path class="cls-8" d="M179.81,67.63c.08,7.72.06,15.45.24,23.17.58,24.29,19.68,43.91,43.94,44.09q68.51.51,137,0c24.27-.18,43.33-19.76,43.95-44.08.19-7.73.17-15.45.24-23.18,2-2.91,5-3.19,8.12-3.2,39.83-.21,79.65-.3,119.47.06,7.91.07,9.8,2.3,10.29,10.15.11,1.64.13,3.28.13,4.92q.06,112.08-.05,224.16c0,4.28,1.12,9.09-3.19,12.36-34.4-3.35-68,.38-99.68,14.41-72.28,32-115,87.27-123.71,166-7.75,70.36,17.44,129,70.49,175.75.87.77,1.59,1.69,2.38,2.54q-94.72.09-189.44.27c-6,0-6.11-3.19-6.11-7.57q.1-65.6,0-131.2c0-3,.81-6.11-1.14-8.85l-.2-.21c-2.73-2-5.89-1.16-8.86-1.17-43.34,0-86.68-.16-130,.1-6.6,0-8.82-1.58-8.81-8.54q.29-221,.08-442.06c0-5.09.33-8.21,6.95-8.17C94.53,67.69,137.17,67.59,179.81,67.63Z" transform="translate(-0.01 -0.03)"/><path class="cls-2" d="M540,316.08q0-120.36.12-240.72c0-5.33-.82-8-7.15-8-42.58.28-85.16.2-127.74.23q0-22.6,0-45.21,66,.06,132,.12c28.62,0,47.78,19,47.79,47.35q0,128.12-.05,256.24C570.19,321.69,555.28,318,540,316.08Z" transform="translate(-0.01 -0.03)"/><path class="cls-9" d="M612.7,474.59c-.19,9.18-4.24,15.32-10.55,20.54q-47.1,39-94,78.24c-10.62,8.85-21.37,17.56-31.8,26.62-3.69,3.21-6,3.71-9.73-.19C454.28,587,441.48,574.56,429,561.91c-10.2-10.3-10.69-23.82-1.35-33.12s22.75-8.75,33.14,1.39c2.85,2.79,6,5.38,8.38,8.5,3.51,4.52,6.21,3.59,10.14.29,31.75-26.69,63.68-53.15,95.51-79.73,7.8-6.51,16.31-8,25.48-3.58C608.4,459.59,612.11,466.6,612.7,474.59Z" transform="translate(-0.01 -0.03)"/><path class="cls-3" d="M192.76,527.44V671.2l-144-144H192.56Z" transform="translate(-0.01 -0.03)"/><path class="cls-10" d="M337.46,180q43.94,0,87.85,0c14.41,0,24.54,9.27,24.65,22.26S440,225,425.74,225q-88.2.09-176.41,0c-17.66,0-28.83-15.41-22.68-30.85,3.53-8.87,11.52-14.06,22.25-14.09Q293.18,180,337.46,180Z" transform="translate(-0.01 -0.03)"/><path class="cls-10" d="M315.24,315c-21.79,0-43.57.05-65.36,0-14.76-.05-25-9.52-24.84-22.79.17-13,10.24-22.16,24.72-22.17q65.36-.07,130.71,0c14.33,0,24.46,9.41,24.49,22.41S394.88,314.92,380.6,315C358.81,315.06,337,315,315.24,315Z" transform="translate(-0.01 -0.03)"/><path class="cls-10" d="M269.76,405c-7.49,0-15,.19-22.48-.05-12.66-.4-22.28-10.28-22.24-22.52a22.3,22.3,0,0,1,22.37-22.33q22.47-.39,45,0c12.75.19,22.45,9.93,22.6,22.14.14,12.52-9.65,22.42-22.73,22.74C284.75,405.13,277.26,405,269.76,405Z" transform="translate(-0.01 -0.03)"/><path class="cls-10" d="M157,225c-5.62,0-11.25-.11-16.87,0-3.31.09-5.24-.6-5.18-4.57q.27-17.92,0-35.85c-.06-3.91,1.74-4.68,5.12-4.64,11.71.12,23.43.15,35.15,0,3.72-.06,4.87,1.36,4.83,4.94-.15,11.71-.21,23.43,0,35.15.08,4.24-1.79,5.13-5.49,5C168.74,224.86,162.87,225,157,225Z" transform="translate(-0.01 -0.03)"/><path class="cls-10" d="M180,293c0,5.86-.12,11.72,0,17.57.09,3.36-1.28,4.5-4.56,4.47-11.95-.11-23.9-.15-35.85,0-3.9.06-4.69-1.71-4.66-5.1.12-11.72.16-23.44,0-35.15-.05-3.71,1.33-4.89,4.93-4.84,11.71.15,23.44.2,35.15,0,4.23-.08,5.15,1.76,5,5.47C179.85,281.27,180,287.13,180,293Z" transform="translate(-0.01 -0.03)"/><path class="cls-10" d="M180,383.06c0,5.84-.12,11.67,0,17.5.09,3.34-1.27,4.49-4.54,4.46q-18.19-.16-36.41,0c-3,0-4.11-1.23-4.09-4.17.07-12.14.1-24.28,0-36.41,0-3.34,1.28-4.49,4.54-4.46,11.9.11,23.81.14,35.71,0,3.69-.05,4.94,1.31,4.82,4.91C179.86,370.92,180,377,180,383.06Z" transform="translate(-0.01 -0.03)"/><path class="cls-10" d="M180,474.09c-.77,5.92,3.19,15.18-1.59,19.68-4.35,4.11-13.42,1-20.4,1.18-5.86.17-11.73-.21-17.58.11-4.45.24-5.57-1.59-5.49-5.73q.33-16.86,0-33.74c-.09-4.22,1.17-5.78,5.55-5.68,11.48.25,23,.23,34.45,0,4.1-.07,5.27,1.54,5.12,5.37C179.84,461.14,180,467,180,474.09Z" transform="translate(-0.01 -0.03)"/></svg>