<svg id="Layer_1" data-name="Layer 1" xmlns="http://www.w3.org/2000/svg" viewBox="0 0 718.72 523.33"><defs><style>.cls-1{fill:#c6cee1;}.cls-2{fill:#efbf86;}.cls-3{fill:#694b4b;}.cls-4{fill:#fe507d;}.cls-5{fill:#e5ae78;}.cls-6{fill:#d4dbec;}.cls-7{fill:#5a4146;}.cls-8{fill:#d13c69;}.cls-9{fill:#707486;}.cls-10{fill:#aeb8d1;}.cls-11{fill:#d8d5db;}.cls-12{fill:#ab8973;}.cls-13{fill:#d19a6e;}.cls-14{fill:#5b5d6e;}.cls-15{fill:#d19b6e;}.cls-16{fill:#959cb5;}</style></defs><path class="cls-1" d="M714.26,412.07c3.47,2.95,3.22,7.76,5.6,11.26v97.05c-4.74,6.06-11.05,7.51-18.46,7.12-9.24-.48-18.53-.19-27.81-.23-2.35-2.48-2-5.62-2-8.63,0-17.31,0-34.61,0-51.92a38.29,38.29,0,0,1,10.73-27.36c7.86-8.34,16-16.35,24.25-24.33C708.57,413,710.58,410.14,714.26,412.07Z" transform="translate(-1.14 -4.23)"/><path class="cls-2" d="M476.74,189.68c.81,33.14-6.76,63.52-29.31,88.93-2.33,2.62-4.37,5.84-7.26,7.54-9,5.31-10.18,13.23-9.61,22.67.6,10,.21,20.14-.13,30.2-.13,3.63,1,5.7,4.38,6.65-1.85,2-3.85,1.84-5.95.42-3.18-7-1.22-14.35-1.56-21.53-.09-7.92.31-15.86-.21-24.78-23.94,14.72-49.13,22.31-76.83,19.49-6.44-1-9.61-6.16-13.21-10.7-2.18-2.73-4.36-5.46-6.42-8.31a122.13,122.13,0,0,1-18.54-66.67c.18-26,0-52,.06-77.93.06-17.28,7.87-26.86,25-29,32.32-4.12,64.3-2.75,95.44,8a155.19,155.19,0,0,1,19.85,8.73c4,12,11.71,21.45,20.67,30.11,2.4,2.31,3,5.73,3.21,9.07C476.49,184.91,475.85,187.34,476.74,189.68Z" transform="translate(-1.14 -4.23)"/><path class="cls-3" d="M475.72,182.72c-1.83-7.74-7.62-12.63-13-17.69A29.15,29.15,0,0,1,453,144.88c-.27-.39-.71-.78-.72-1.19-.18-12-8.73-17.18-17.64-22.23-20.05-11.39-41.76-17-64.51-19.8-13.75-1.68-27.53-.44-41.24-1.84C310.72,95,297,84.66,291.68,66.24,284,39.77,297.7,14,320.28,7c.92.18.52-1.26.35-.34,0,.05-.16,0-.4,0a3.21,3.21,0,0,1-3.66-1.29c4.06-1.5,8.32-1,12.49-1q67-.12,134-.09c15.45,0,25.11,9.89,25.13,25.57,0,31.64-.05,63.28,0,94.92.05,14.67-3,28.7-7.74,42.47-1.74,5.06-3.62,10.11-3.7,15.57C476.42,183.45,476.05,183.43,475.72,182.72Z" transform="translate(-1.14 -4.23)"/><path class="cls-4" d="M453.12,372.83l63,22.62c8.71,1,16.45,4.52,23.54,9.53,2.63,1.85,5.4,3.74,5.57,7.5-.7,3.48-3.43,5.5-5.71,7.8q-17.06,17.21-34.22,34.3c-10.32,10.24-16,22.23-15.26,37.1.42,9.12.12,18.27.05,27.41,0,2.77.41,5.69-1.79,8l-105,0c-4.19-6-2.81-13.07-3.51-19.61-2.53-23.44-4.4-46.95-6.92-70.4a26.45,26.45,0,0,1,.18-9.05c.94-3.34,4.49-4.75,5.75-7.85,1.32-2.36.92-5,1.29-7.53.61-4.17,2.72-4.54,5.69-2.11,3.26,2.67,6,5.84,9,8.79C404,428.37,409,428.2,417,418c10.19-13.07,19.79-26.6,30.1-39.58C448.82,376.24,450,373.44,453.12,372.83Z" transform="translate(-1.14 -4.23)"/><path class="cls-4" d="M178,409.31c11.66-9.67,26.24-12.95,39.91-18.17,16.57-6.32,33.3-12.23,50-18.31,6.53,3.74,9.62,10.57,14.1,16.1,7.63,9.43,14.49,19.48,22,29,8,10.2,13.09,10.4,22.26,1.38,2.83-2.78,5.44-5.8,8.51-8.31,4-3.26,5.54-2.65,6.28,2.34.35,2.3,0,4.69,1.19,6.85,1.22,3.09,4.77,4.46,5.74,7.74,1.11,12.93-1.69,25.6-2.72,38.37-1.43,17.92-3.27,35.82-5.09,53.72-.26,2.55-.12,5.2-2.39,7.06l-105,0c-2.2-2.29-1.76-5.21-1.78-8-.07-9.58-.29-19.17,0-28.73.47-13.75-4.7-25.05-14.12-34.62-11.62-11.8-23.4-23.45-35.07-35.22-2.28-2.29-5-4.32-5.91-7.67A3.23,3.23,0,0,1,178,409.31Z" transform="translate(-1.14 -4.23)"/><path class="cls-5" d="M328.2,98.38c22.57-.13,45.09.15,67.2,5.66a161.65,161.65,0,0,1,47.32,20c8,5,12.06,11.33,10.24,20.87-9.27-2.46-17.46-7.66-26.74-10.22-24.67-6.8-49.57-10.08-75.13-6.84-5.75.73-11.55.12-17.37,1.37-11.8,2.55-19.47,11-19.51,23-.07,30.22-.58,60.45.19,90.64.47,18.36,5.87,35.81,15.25,51.81,1.19,2,2.6,3.89,2.8,6.32,1.3,2.83,4.48,5.78,1,8.74-2.93,2.52-6.65,1.76-9.92.09-9.36-4.78-19.18-8.57-28.48-13.48-4.83-2.55-6.95-8.9-13.22-9.37-21.21-19.1-32.78-43.12-36.5-71.24-1.57-11.88-1.38-23.78-1.18-35.7A29.5,29.5,0,0,1,253,167.54c9.89-8.36,13.89-18.94,13-31.78a130,130,0,0,1,.07-17.54c.43-6.79,3.83-12,10.41-13.45C293.46,100.89,310.47,96.57,328.2,98.38Z" transform="translate(-1.14 -4.23)"/><path class="cls-6" d="M178,409.31c-.52.85-1,1.71-1.55,2.57a11.46,11.46,0,0,1-1.21,3.27c-9.23,12.3-10.65,26.6-10.64,41.29q0,21,0,42.07c0,8.16-.63,16.39,3.33,24,.64,1.24,1.63,3.12-.73,4.1-39.4.09-78.8,0-118.19,0-4.5-1.23-3.4-5.11-3.44-8.08-.2-15.39-.35-30.78,0-46.17.23-9.76-3.62-17.07-11-22.92q-10.69-8.43-21.26-17c-2.15-1.75-4.6-3.28-5.14-6.35,4-5.69,9.26-9.45,15.65-12.2,8.06-3.48,15.78-7.74,23.65-11.66,2.68.75,4.09,3,5.69,5,13.31,16.49,31,24.92,51.7,25.15,21,.24,38.87-8.36,52.72-24.56,1.81-2.12,3.23-4.63,6.16-5.44Z" transform="translate(-1.14 -4.23)"/><path class="cls-3" d="M90.57,185.37c31-8.4,67.67,7.64,84.79,36.08,9.56,15.88,13.42,33,15.19,51.06a386.17,386.17,0,0,0,16.37,80.59c4.87,15.15,3.35,18.55-11.24,24.56-15.28,6.3-31,11.38-47.41,13.65-6.76.53-7.2-4.84-8.64-9.28-2.09-8.13-1.72-16.37-1.19-24.62.8-4.13,4.3-5.93,7.18-8.23,9.09-7.23,16.8-15.56,21.55-26.34,2.71-5.5,4.05-11.36,5.33-17.34,1.48-6.9-.74-11.73-6-15.92a203.38,203.38,0,0,0-73.16-37.15,29.52,29.52,0,0,1-4-1.21c-18.78-12-24.06-33.19-13.25-52.4C79.52,192.71,85,189,90.57,185.37Z" transform="translate(-1.14 -4.23)"/><path class="cls-2" d="M673.32,278.37c1,16.94.16,33.52-8.08,49-6.1,11.46-15,20.06-25.53,27.27a10.28,10.28,0,0,1-2.18,2.77c-14.43,8.56-30,10.37-46.32,7.89a15.77,15.77,0,0,1-8.27-3.41,64.84,64.84,0,0,1-15.35-44c.24-11-.07-22,.09-33,.23-15.8,9.75-25.24,25.47-25.3,23.31-.1,46,4,68.3,10.46C666.11,271.39,671.89,272,673.32,278.37Z" transform="translate(-1.14 -4.23)"/><path class="cls-6" d="M714.26,412.07c-.68.13-1.59,0-2,.44-11.52,11.18-23.81,21.65-33.45,34.62-3.84,5.15-5.28,11.32-5.27,17.79q0,31.17.06,62.35l-59.06.05c-1.77-3.69-1.91-7.69-2-11.63-.2-9.55-.9-19.09-1.18-28.61-.57-19.32-2.2-38.61-2.26-57.94,2.87-4.66,5.44-9.47,6.06-15.06,3.23-2.35,5,.78,7.2,2,6,3.44,7.73,3.14,11.38-2.61,4.89-7.71,8.62-16.06,13.31-23.88,1.19-2,1.79-4.36,4-5.61,13.92,4.22,27.81,8.56,41.78,12.61C701.87,399.26,709.13,404.12,714.26,412.07Z" transform="translate(-1.14 -4.23)"/><path class="cls-3" d="M554.12,190.88c8.38-8.84,18.69-12.43,30.8-12.31,24.5.26,49,.05,73.52.09,17.4,0,25.74,9,26.68,26.18,1.29,24-3.36,46.91-10.66,69.49-2,1.15-3.1-.27-3.87-1.71-6.25-11.73-17.11-17.68-28.67-22.42-15.9-6.54-32.6-9.72-49.76-10.7-7.43-.42-14.82-1.59-22.28-.59-6.88-1.3-13.73-2.5-18.8-8.17C540.82,219.27,542.18,200.61,554.12,190.88Z" transform="translate(-1.14 -4.23)"/><path class="cls-7" d="M90.57,185.37c1.92,2.08-.69,2.33-1.4,2.72-21.64,11.89-22.7,48.3-.4,60.91.37.2.54.74.8,1.13-6.55,3.63-10.66,9.43-14.37,15.73-6.62,11.28-17.21,18.26-27.91,25-9.34,5.92-10.62,8.93-7.85,19.76,4,15.73,12.12,28.75,25.33,38.42,2.59,1.9,5.62,3.5,6.66,7,1.07,8,.57,16.07.39,24.1-1.28,4.51-1.23,9.95-7.53,11a216.85,216.85,0,0,1-50.1-15.34c-9.49-4.2-11.87-8.5-8.66-18.21,10.73-32.4,16-65.84,19.57-99.64,3.61-33.57,28.46-63,60-71.62C86.86,185.85,88.73,185.68,90.57,185.37Z" transform="translate(-1.14 -4.23)"/><path class="cls-7" d="M328.2,98.38c-15.58,2.46-31.36,3.48-46.8,7-10.88,2.47-13.58,5.25-13.61,16.55,0,7,.06,14,0,21-.08,6.18-1.13,12.18-5.34,17-6,6.79-12.16,13.37-18.25,20-2.05-11.75-8-22.52-9.19-34.42-3-30.5-6.66-61.38,8.18-90C258.5,26,283,8.67,316.57,5.38l8.9.6c-16.09,6.29-27.38,15.64-31.94,31.41-7.32,25.22,4.5,49.36,28.39,58.26C324.06,96.44,326.51,96.55,328.2,98.38Z" transform="translate(-1.14 -4.23)"/><path class="cls-8" d="M168.72,525.81a16.19,16.19,0,0,1-5.7-13c.4-25.27-1.38-50.58,1-75.8.93-9.78,4.84-18.44,12.43-25.08,12.79,14.54,27.06,27.63,40.65,41.39,10.49,10.63,16.37,22.81,15.74,38.1-.49,11.88-.13,23.81-.14,35.71l-61.35,0C170.49,526.69,169.2,527.09,168.72,525.81Z" transform="translate(-1.14 -4.23)"/><path class="cls-8" d="M488.28,527.08c0-12.6.2-25.22-.11-37.82-.33-13.7,5-24.93,14.3-34.44,12.25-12.49,24.71-24.77,37-37.19,1.79-1.8,3.34-3.84,5-5.77,4.28-.11,5.88,3.22,7.81,6.11,6.09,9.13,7.72,19.61,8,30.15.56,20.82.41,41.66.07,62.48-.17,10.07-3.3,14.31-10.8,16.49Z" transform="translate(-1.14 -4.23)"/><path class="cls-5" d="M569.83,237.94c39.22-.41,78.1.18,104.63,36.38l-1.14,4.05c-5.83-6.15-14-7.39-21.49-9.06-20.17-4.5-40.49-8.4-61.36-7.77-10.16.3-20.58,8.18-20.5,18.24.16,19.54-2.89,39.25,2.38,58.62,2.3,8.48,7.58,15.34,11.39,23-4.39,2.48-7.76-1.28-11.71-2.15-1.44,3.91.42,8.1-1.73,11.67a1.42,1.42,0,0,1-1.78.36,8.18,8.18,0,0,1,0-1.4c1.76-10.5-2.67-17-11.08-23.71-14.33-11.45-21.56-27.71-22.86-46.29-.43-6.27.58-12.61-1-18.81-.75-8.36,3-14.8,8.66-20.43,5.46-5.44,10.77-11,16.38-16.31C561.8,241.33,564.85,237.85,569.83,237.94Z" transform="translate(-1.14 -4.23)"/><path class="cls-6" d="M549.58,527.09c5.89-2.86,8.51-7.88,8.42-14.12-.39-25.39,1.42-50.83-1.06-76.17-1-9.7-4.82-18.37-12.44-24.94-7.18-9.45-18.5-11.69-28.4-16.41,14-2.56,27.53-6.82,40.93-11.5,5.53,6.45,8,14.68,12.66,21.65,1.16,1.74,1.91,3.75,3,5.56,4.92,8.36,6.38,8.71,14.72,3.81,1.66-1,3.26-3.08,5.51-.93,1.27,5.13,2.37,10.3,5,15,1.16,7.69,1,15.44.43,23.12q-2,29.37-2.72,58.8c-.13,5.53-.17,11.25-3.31,16.25Z" transform="translate(-1.14 -4.23)"/><path class="cls-5" d="M281.86,286.92c4.51.06,7.89-.29,11,5.49,2.42,4.5,10.52,5.94,16.1,8.73,5.36,2.67,11.45,3.64,16.31,7.62a6.35,6.35,0,0,0,7.29,0c2.82-2.2-1-5.11-.11-7.77,4.07,2.2,5.91,6.5,8.62,9.87a25.54,25.54,0,0,0,8.24,7c-2.16,2.23-4.77,1.35-7.26,1-15.23-2.3-29.28-7.82-42.55-15.53-5.3-3.08-5.62-2.83-5.86,3.19-.6,15.55-.77,16,13.73,21.89,36.89,14.94,73.69,14.77,110.2-1.71,3.63-1.64,6.87-5.28,11.59-3.21q.06,11.21.14,22.4c-.69,2.93-3.38,3.73-5.5,5-18.74,11.45-37.49,22.89-56,34.65-5.23,3.32-10,3.41-14.89-.27-21.5-12.84-41.94-27.47-64.53-38.49a2.07,2.07,0,0,1-.81-1.1c3-1.12,3.14-3.51,3.11-6.24-.16-13.56-.54-27.13-.12-40.66C290.74,291.92,284,291.38,281.86,286.92Z" transform="translate(-1.14 -4.23)"/><path class="cls-5" d="M64.29,391.15c3.63-2.33,4.45-6.32,5.87-10,1.59-1.49,3.44-1.29,5.26-.67a91.31,91.31,0,0,0,59.18.3c2.4-.78,5.14-1.6,6.62,1.73,1.62,3.51,2.27,7.82,7.06,8.77-.11,4.26,3.82,4.59,6.25,6.2a95.11,95.11,0,0,0,9.22,4.86c-13.33,20.14-32.49,31.09-56.14,31.72-25.34.67-46-10-60.14-31.82C53.21,398.76,60.19,397.15,64.29,391.15Z" transform="translate(-1.14 -4.23)"/><path class="cls-8" d="M353.5,383.93c5,3.55,9.27,2.71,14.51-.61,20.22-12.84,40.83-25.06,61.29-37.51l5.52-.14c4.94.73,7.47,4.28,9.43,8.34,3,6.24,5.92,12.55,8.87,18.82-11.69,15.65-23.22,31.42-35.14,46.89-8.27,10.73-14.52,10.88-24.05,1.21-3.59-3.64-6.89-7.57-10.61-11.69-3.24,4.08-.19,8.36-2.87,11.31a2.89,2.89,0,0,1-1.68-2.84c1.52-12.13-8.45-17.15-14.9-24.34-1.79-2-3.8-2.3-6.19-.78-1.61,1-3.47,3-5.28.11C351.47,389.61,351.07,386.59,353.5,383.93Z" transform="translate(-1.14 -4.23)"/><path class="cls-8" d="M353.5,383.93l.06,10.09c.45,3-1.64,4.73-3.47,6.34-4.86,4.29-8.4,9-7.62,16a4.06,4.06,0,0,1-1.9,4.16c-2.35-3.05-.3-6.82-2.09-11.68-4.82,5.08-9,9.7-13.37,14-6.77,6.68-13.26,7.07-19.09-.22-13.07-16.33-25.45-33.21-38.11-49.86,2.94-6.27,5.82-12.56,8.84-18.79,2.19-4.54,5.08-8.33,10.79-8.42,8.42.5,14.38,6.19,21,10.24C323.67,365,338.54,374.55,353.5,383.93Z" transform="translate(-1.14 -4.23)"/><path class="cls-1" d="M8.17,426.13c9.49,7.43,19.09,14.72,28.42,22.34,7.15,5.84,11.3,13,11,22.92-.49,18.19-.13,36.41-.13,54.61.49.3.65.6.48.88s-.34.42-.52.42c-11.19,0-22.39.14-33.59.08-7.76,0-12.65-4.86-12.67-12.54q-.1-35.07,0-70.13C1.18,437.66,4,431.64,8.17,426.13Z" transform="translate(-1.14 -4.23)"/><path class="cls-9" d="M337.77,527.11c2-30,5.29-59.8,8.25-89.67.36-3.7.17-7.45.24-11.17a98.62,98.62,0,0,1,28.5,0c-.49,13.56,2.07,26.9,3.11,40.35,1.57,20.17,4.33,40.26,5.38,60.49Z" transform="translate(-1.14 -4.23)"/><path class="cls-1" d="M592.1,413.48c-13.24,10.35-15.34,9.88-22.91-5.2-4.07-8.1-9.6-15.47-12.16-24.33,3.57-4.46,5.08-10.8,11.49-12.68a10.68,10.68,0,0,1,1.11.18c3.11.54,4.62,3.26,6.84,5,7.19,7.59,15.88,13.59,22.84,21.43,3.28,3.7,6.44,2.9,9.5-.19,7.67-7.76,15.78-15.05,23.78-22.46,3.16-2.88,4.11-6.52,4-10.67,0-3-.53-6.1,1.77-8.61l1.3-1.34c-3.7,12.69,5.83,20.25,11.34,29.38-4.45,11.85-11.49,22.34-17.54,33.34-2,3.6-5.56,4.23-9.09,2.17-3-1.75-5.69-4-8.53-6-2.7.8-4.44-1.14-6-2.61-4.45-4.29-8.38-3.57-12.53.37C596,412.57,594.59,414.48,592.1,413.48Z" transform="translate(-1.14 -4.23)"/><path class="cls-7" d="M569.83,237.94c-11.82,7.68-20.69,18.53-30.33,28.53-3.81,4-4.61,9.44-5.92,14.58-6.72-19-12.23-38.14-10.44-58.7,1.46-16.91,13.91-29.79,31-31.47-2.47,4.94-5.89,9.25-7.12,15-3.47,16.16,3.54,27.28,19.93,30.43A4.09,4.09,0,0,1,569.83,237.94Z" transform="translate(-1.14 -4.23)"/><path class="cls-10" d="M592.29,527.19c1.3-24.13,2.71-48.25,3.84-72.39.43-9.09.21-18.21.29-27.31,4.73-2.9,9.42-3.05,14.07.19,2.89,11.93,1.3,24.18,2.19,36.27,1.48,20.21,1.59,40.55,2.94,60.82,0,.82-.71,1.7-1.09,2.55Z" transform="translate(-1.14 -4.23)"/><path class="cls-11" d="M47.45,527.3c0-.43,0-.87,0-1.3l121.23-.19,2.67,1.29Z" transform="translate(-1.14 -4.23)"/><path class="cls-12" d="M475.72,182.72a4,4,0,0,0,1.1.05c0,2.3-.05,4.61-.08,6.91C474.9,187.58,475.77,185.09,475.72,182.72Z" transform="translate(-1.14 -4.23)"/><path class="cls-13" d="M429.16,323.4c-9.59,3.59-18.56,8.54-28.35,11.84-13.24,4.47-27,6.07-40.46,6-22.2-.1-43.84-4.72-63.64-15.86-3.47-1.95-5.41-3.83-5-8s-.09-8.43.14-12.63c.13-2.42-1.47-5.75,1.21-7.05,2.07-1,4,1.77,5.91,2.95a115.46,115.46,0,0,0,50.39,17.18c28.68,1.57,55.28-4.64,79.85-22.28Z" transform="translate(-1.14 -4.23)"/><path class="cls-14" d="M374.76,426.27a68.27,68.27,0,0,1-28.5,0c-3.22-.59-4.85-2.76-5.69-5.72-3-12.43,6-19,13-26.53,7.25-6.12,7.25-6.12,14.23.87a23.68,23.68,0,0,0,2.47,2.44c7.89,5.78,11.74,13.3,10.19,23.22C379.61,423.51,378,425.68,374.76,426.27Z" transform="translate(-1.14 -4.23)"/><path class="cls-2" d="M168.27,323.6c-5.34,14.31-16.5,23.49-28.23,32.18-7.83,7.72-18.2,8.84-28.2,10.16-6.3.84-13,1.42-19.14-1.66-21.52-14.71-25.32-36.23-23-60.11a10.74,10.74,0,0,1,4.56-7.6,61.88,61.88,0,0,0,15.23-16.3c3.06-4.94,7.16-6.08,12.6-4,19.84,7.43,38.31,17.23,54.48,31.06,3,2.58,6.17,5,9.06,7.72C168.16,317.35,170.12,319.91,168.27,323.6Z" transform="translate(-1.14 -4.23)"/><path class="cls-5" d="M168.27,323.6c.34-3.18-1.47-5.25-3.61-7.2a188.56,188.56,0,0,0-63.52-38.65c-5-1.8-7.74-.66-10.26,3.63a49.18,49.18,0,0,1-15.2,16.21c-1.91,1.28-4.11,2.89-4.17,5.4-.38,15.4-2.09,31.2,7.28,44.84,3.79,5.52,9,10,13.62,15-7,2.38-17.12-1.36-22.7-8.34C51,343.46,40.64,326.63,36.48,305.66c-1.22-6.17.94-11.26,6.49-14.29,15.32-8.35,28.13-19.16,36.26-35,2-4,5.74-6.07,10.34-6.22,20.69,4.39,39.81,12.66,57.7,23.82,6.32,3.93,12.25,8.48,18.44,12.63,7.54,5.05,11.08,11.27,8.29,20.77C172.38,312.91,171.59,318.67,168.27,323.6Z" transform="translate(-1.14 -4.23)"/><path class="cls-13" d="M69.71,354.51c7,4.42,14.29,7.86,22.7,8.34,14.28,3.45,27.92.94,41.24-4.47l6.39-2.6c.55,8.91-.45,17.89,1.18,26.76-6.09-2.22-11.08,2-16.56,3.09-17.76,3.49-34.91,2.5-51.74-4.19a10,10,0,0,0-2.76-.26Z" transform="translate(-1.14 -4.23)"/><path class="cls-15" d="M638.41,356c0,3.21-.19,6.44.14,9.62.53,5.12-1.09,8.93-5.75,11.3-19.19,9-38.39,8.68-57.6,0a15,15,0,0,1-5.57-5.49v-14.8l14.11,4.75c17.47,5.26,34.36,3.71,50.74-4.24A25.19,25.19,0,0,1,638.41,356Z" transform="translate(-1.14 -4.23)"/><path class="cls-16" d="M610.49,427.68l-14.07-.19c-5.79-3.33-3.84-9-4.32-14,14.64-11.3,9.19-10.63,23.8,0C615.67,418.83,617.36,424.89,610.49,427.68Z" transform="translate(-1.14 -4.23)"/><path class="cls-5" d="M575.2,376.94c8.69,1.28,17.11,3.94,26,4.29,10.85.43,21.14-2.37,31.6-4.33q-12.66,12-25.29,24c-2.38,2.27-4.61,2.71-7.16.24Q587.83,389,575.2,376.94Z" transform="translate(-1.14 -4.23)"/></svg>